<?xml version="1.0" encoding="UTF-8" standalone="no"?>
<!-- Created with Inkscape (http://www.inkscape.org/) -->

<svg
   width="152.24001mm"
   height="39.104221mm"
   viewBox="0 0 152.24001 39.104221"
   version="1.1"
   id="svg1"
   xml:space="preserve"
   xmlns="http://www.w3.org/2000/svg"
   xmlns:svg="http://www.w3.org/2000/svg"><defs
     id="defs1"><style
       type="text/css"
       id="style1">
   <![CDATA[
    .fil0 {fill:black;fill-rule:nonzero}
    .fil1 {fill:#B0987A;fill-rule:nonzero}
   ]]>
  </style></defs><g
     id="layer1"
     transform="translate(-9.2605641,-113.29461)"><g
       style="clip-rule:evenodd;fill:#ffffff;fill-rule:evenodd;image-rendering:optimizeQuality;shape-rendering:geometricPrecision;text-rendering:geometricPrecision"
       id="g1"
       transform="matrix(0.00237311,0,0,0.00237311,9.2605407,113.2946)"><g
         id="Camada_x0020_1"
         style="fill:#ffffff">
  <metadata
   id="CorelCorpID_0Corel-Layer" />
  <g
   id="_2126335249504"
   style="fill:#ffffff">
   <path
   class="fil0"
   d="m 4042.35,7592.4 c -96.31,30.7 -238.52,74.44 -426.58,131.24 -940.64,280.11 -1410.84,616.81 -1410.84,1010.63 0,218.82 75.47,405.73 226.38,561 150.95,155.44 335.65,232.95 554.51,232.95 122.41,0 263.49,-32.76 423.23,-98.36 159.65,-65.64 368.53,-181.53 626.77,-347.79 z m 3353.2,1653.75 321.67,656.18 c -603.86,354.32 -1102.56,611.42 -1496.3,771.07 -393.7,159.61 -719.6,239.57 -977.74,239.57 -380.55,0 -668.19,-84.3 -862.9,-252.75 -194.67,-168.34 -298.51,-418.78 -311.69,-751.36 -520.59,363.14 -949.34,621.26 -1286.17,774.37 -337.01,152.99 -640.95,229.74 -912.1,229.74 -516.27,0 -957.16,-194.8 -1322.35,-584.06 C 182.67,9939.57 0.01,9471.53 0.01,8924.46 c 0,-879.25 1017.16,-1546.31 3051.43,-2001.39 424.32,-96.09 756.85,-172.83 997.45,-229.63 4.36,-131.34 9.84,-272.42 16.39,-423.37 6.63,-150.92 9.84,-239.44 9.84,-265.67 0,-323.74 -74.44,-563.21 -223.08,-718.61 -148.77,-155.29 -380.54,-232.94 -695.59,-232.94 -314.92,0 -563.31,56.93 -744.83,170.65 -181.49,113.8 -272.31,266.92 -272.31,459.32 v 137.78 c 0,192.59 -91.85,336.88 -275.64,433.1 -183.69,96.31 -463.68,144.39 -839.97,144.39 -249.32,0 -437.46,-46.95 -564.35,-141.08 C 332.46,6163 269.12,6021.88 269.12,5833.74 c 0,-144.39 57.95,-301.86 173.84,-472.48 115.91,-170.65 283.23,-345.52 502.05,-524.97 389.38,-315.03 846.53,-565.35 1371.47,-751.32 525.07,-186.02 1039.01,-278.88 1542.09,-278.88 857.51,0 1499.51,196.87 1925.95,590.57 426.59,393.72 639.92,988.75 639.92,1784.87 0,183.8 -17.49,566.65 -52.55,1148.4 -35.03,581.84 -52.47,1071.89 -52.47,1469.93 0,223.08 38.28,391.56 114.88,505.26 76.48,113.81 189.05,170.63 337.93,170.63 65.64,0 144.3,-17.4 236.25,-52.46 91.85,-35.03 220.9,-94.01 387.08,-177.15 z"
   id="path1"
   style="fill:#ffffff" />
   <path
   class="fil0"
   d="m 11359.23,3792.94 c -26.33,306.22 -49.25,611.42 -68.93,915.46 -19.7,304.03 -36.09,611.42 -49.25,921.97 389.35,-669.46 714.23,-1121.13 974.53,-1355.07 260.19,-234.09 543.51,-351.11 849.72,-351.11 301.86,0 556.69,118.07 764.54,354.32 207.72,236.25 311.71,524.93 311.71,866.2 0,306.34 -78.66,555.65 -236.27,748.15 -157.43,192.5 -356.59,288.72 -597.06,288.72 -135.73,0 -311.73,-66.68 -528.29,-200.19 -216.56,-133.43 -386.17,-200.19 -508.58,-200.19 -126.98,0 -271.28,50.41 -433.1,150.95 -161.92,100.66 -339.09,251.6 -531.59,452.81 -4.35,179.44 -7.66,365.28 -9.84,557.81 -2.17,192.59 -3.21,444.08 -3.21,754.67 v 767.72 c 0,642.76 73.17,1047.01 219.86,1213.19 146.47,166.04 436.32,249.08 869.42,249.08 78.78,0 142.12,-1.04 190.32,-3.09 48.11,-2.07 91.87,-3.08 131.25,-3.08 v 722.59 c -551.3,-43.75 -1044.53,-76.51 -1479.81,-98.48 -435.37,-21.76 -830.14,-32.76 -1184.46,-32.76 -205.67,0 -498.71,11 -879.36,32.76 -380.54,21.97 -798.42,54.73 -1253.4,98.48 v -741.48 c 21.87,0 56.8,2.03 105,6.29 48.11,4.23 78.79,6.3 91.96,6.3 590.58,0 885.91,-673.61 885.91,-2020.81 0,-222.95 2.05,-395.77 6.53,-518.28 l 13.16,-735 v -498.71 c 0,-415.57 -51.52,-685.72 -154.23,-810.43 -102.84,-124.72 -289.84,-187.02 -561.17,-187.02 -52.42,0 -110.5,1.14 -173.82,3.32 -63.56,2.18 -130.21,5.52 -200.16,9.87 l -39.4,-695.59 c 559.99,-61.25 1129.73,-147.74 1709.52,-259.28 579.58,-111.53 1169.11,-248.26 1768.49,-410.09 z"
   id="path2"
   style="fill:#ffffff" />
   <path
   class="fil0"
   d="m 17783.59,3819.18 c -21.98,266.83 -39.38,483.52 -52.47,649.66 -13.14,166.29 -26.19,319.39 -39.36,459.33 463.68,-371.82 882.59,-640.83 1256.58,-807.1 374.03,-166.29 742.53,-249.44 1105.78,-249.44 402.43,0 752.39,93.1 1050.04,278.99 297.37,185.96 533.53,460.46 708.64,823.48 446.15,-371.72 868.38,-648.52 1266.56,-830.14 397.95,-181.5 778.6,-272.33 1141.74,-272.33 629.95,0 1136.36,205.69 1519.18,616.91 382.72,411.23 574.09,958.07 574.09,1640.48 0,249.41 -1.14,464.92 -3.08,646.45 -2.31,181.62 -5.75,361.98 -9.97,541.33 l -13.18,774.37 c 0,91.83 -2.27,249.32 -6.51,472.16 -4.25,223.07 -6.53,400.12 -6.53,531.23 0,327.86 50.14,551.97 150.81,672.09 100.66,120.27 284.34,180.39 551.3,180.39 13.05,0 42.72,-3.12 88.61,-9.19 45.94,-6.16 82.14,-9.25 108.36,-9.25 v 715.26 c -380.67,-43.72 -735.08,-76.47 -1063.08,-98.48 -328.19,-21.76 -623.44,-32.76 -885.92,-32.76 -232,0 -505.36,11 -820.27,32.76 -315.03,22.01 -662.83,54.75 -1043.38,98.48 v -708.73 c 17.4,0 40.45,2.05 68.82,5.94 28.4,4.03 66.67,5.97 114.88,5.97 214.25,0 359.8,-86.35 436.42,-259.04 76.51,-172.7 114.84,-575.82 114.84,-1209.66 v -761.19 -459.33 c 0,-822.48 -65.7,-1342.04 -196.85,-1558.59 -131.24,-216.54 -369.87,-324.88 -715.26,-324.88 -166.4,0 -344.58,32.85 -534.93,98.46 -190.2,65.64 -401.36,168.47 -633.17,308.42 v 3156.44 c 0,450.18 36.1,730.84 108.23,842.28 72.16,111.41 210.94,167.09 416.62,167.09 52.56,0 91.96,-0.94 118.2,-2.99 26.22,-1.96 52.46,-4.94 78.78,-8.93 v 708.73 c -586.33,-56.22 -1000.77,-92.19 -1243.55,-107.74 -242.78,-15.57 -445.24,-23.5 -607.07,-23.5 -166.27,0 -376.29,7.93 -629.95,23.5 -253.78,15.55 -667.19,51.52 -1240.23,107.74 v -708.73 c 26.23,3.99 52.56,6.97 78.78,8.93 26.23,2.05 63.34,2.99 111.54,2.99 231.77,0 390.38,-86.35 475.73,-259.04 85.31,-172.7 128.03,-562.77 128.03,-1170.25 v -820.31 -347.79 c 0,-861.72 -65.73,-1406.5 -196.98,-1633.93 -131.14,-227.43 -369.67,-341.37 -715.16,-341.37 -166.4,0 -344.58,31.82 -534.91,95.28 -190.22,63.43 -392.68,158.61 -606.96,285.37 -8.8,468.26 -16.35,915.46 -23.01,1342.04 -6.53,426.46 -9.74,860.72 -9.74,1302.53 v 551.3 c 0,428.04 38.14,701.31 114.75,819.23 76.51,117.97 217.59,176.95 423.26,176.95 48.11,0 85.31,-0.94 111.54,-2.99 26.23,-1.96 52.46,-4.94 78.78,-8.93 v 708.73 c -419.92,-43.72 -793.03,-76.47 -1118.82,-98.48 -326.05,-21.76 -593.89,-32.76 -803.92,-32.76 -288.71,0 -602.71,11.82 -941.68,35.39 -339.09,23.59 -696.72,55.44 -1072.92,95.85 V 9928.6 h 150.95 c 336.79,0 564.35,-77.65 682.51,-232.95 118.05,-155.25 177.17,-552.29 177.17,-1191.08 V 8064.94 6923.07 c 0,-74.3 -2.3,-210.03 -6.53,-406.88 -4.48,-196.85 -6.64,-356.5 -6.64,-479.04 0,-319.26 -49.25,-543.51 -147.6,-672.54 -98.49,-129.07 -265.8,-193.66 -502.05,-193.66 -17.53,0 -66.77,4.48 -147.6,13.18 -80.99,8.82 -147.74,15.35 -200.19,19.7 v -702.25 c 586.23,-78.65 1148.4,-174.87 1686.51,-288.68 538.12,-113.71 1065.23,-244.94 1581.47,-393.72 z"
   id="path3"
   style="fill:#ffffff" />
   <path
   class="fil0"
   d="m 31741.4,7592.4 c -96.18,30.7 -238.52,74.44 -426.58,131.24 -940.64,280.11 -1410.86,616.81 -1410.86,1010.63 0,218.82 75.48,405.73 226.29,561 151.05,155.44 335.88,232.95 554.62,232.95 122.41,0 263.52,-32.76 423.26,-98.36 159.65,-65.64 368.51,-181.53 626.74,-347.79 z m 3353.2,1653.75 321.56,656.18 c -603.72,354.32 -1102.34,611.42 -1496.15,771.07 -393.74,159.61 -719.64,239.57 -977.76,239.57 -380.54,0 -668.31,-84.3 -862.89,-252.75 -194.8,-168.34 -298.55,-418.78 -311.73,-751.36 -520.69,363.14 -949.34,621.26 -1286.13,774.37 -336.92,152.99 -641.08,229.74 -912.24,229.74 -516.15,0 -957.04,-194.8 -1322.23,-584.06 -365.32,-389.34 -547.98,-857.38 -547.98,-1404.45 0,-879.25 1017.28,-1546.31 3051.34,-2001.39 424.4,-96.09 756.97,-172.83 997.58,-229.63 4.35,-131.34 9.83,-272.42 16.35,-423.37 6.66,-150.92 9.84,-239.44 9.84,-265.67 0,-323.74 -74.44,-563.21 -223.08,-718.61 -148.74,-155.29 -380.54,-232.94 -695.55,-232.94 -314.95,0 -563.35,56.93 -744.85,170.65 -181.53,113.8 -272.45,266.92 -272.45,459.32 v 137.78 c 0,192.59 -91.7,336.88 -275.54,433.1 -183.67,96.31 -463.64,144.39 -839.85,144.39 -249.44,0 -437.58,-46.95 -564.34,-141.08 -127.13,-94.01 -190.32,-235.13 -190.32,-423.27 0,-144.39 57.8,-301.86 173.93,-472.48 115.78,-170.65 283.09,-345.52 501.82,-524.97 389.48,-315.03 846.64,-565.35 1371.57,-751.32 525.07,-186.02 1039.04,-278.88 1542.09,-278.88 857.42,0 1499.51,196.87 1926.08,590.57 426.48,393.72 639.82,988.75 639.82,1784.87 0,183.8 -17.53,566.65 -52.46,1148.4 -35.15,581.84 -52.55,1071.89 -52.55,1469.93 0,223.08 38.23,391.56 114.84,505.26 76.38,113.81 189.19,170.63 337.97,170.63 65.51,0 144.38,-17.4 236.21,-52.46 91.87,-35.03 220.94,-94.01 387.08,-177.15 z"
   id="path4"
   style="fill:#ffffff" />
   <path
   class="fil0"
   d="m 36452.93,4042.26 c 564.35,45.84 1129.73,79.27 1696.35,99.98 566.52,20.96 1138.53,31.25 1716.05,31.25 560,0 1043.49,-10.29 1450.26,-31.25 406.77,-20.71 774.38,-54.15 1102.47,-99.98 l 255.93,787.55 c -328.19,249.75 -743.8,655.14 -1246.86,1216.04 -91.83,100.89 -159.74,175.33 -203.37,223.44 l -2283.61,2465 c 511.79,13.05 919.7,22.89 1223.74,29.42 304.03,6.64 495.52,9.87 574.18,9.87 511.88,0 855.33,-69.87 1030.2,-209.94 175,-139.94 302,-422.1 380.78,-846.49 l 741.4,157.47 c -131.12,472.48 -232.82,940.64 -305.07,1404.32 -72.16,463.79 -119.24,927.6 -141.08,1391.15 -800.6,-56.8 -1484.16,-97.35 -2050.67,-121.37 -566.65,-23.96 -1079.58,-36.1 -1538.78,-36.1 -363.16,0 -757.99,14.21 -1184.47,42.63 -426.67,28.49 -904.58,71.21 -1433.87,128.03 l -282.18,-780.89 c 288.71,-161.83 649.66,-479.04 1082.67,-951.52 61.25,-65.64 107.18,-115.93 137.85,-150.95 l 2697.02,-2860.88 c -301.85,-8.93 -624.47,-16.63 -967.77,-23.16 -343.55,-6.51 -534.91,-9.96 -574.32,-9.96 h -91.73 c -612.55,0 -989.99,61.74 -1132,184.97 -142.35,123.44 -244.02,387.62 -305.18,792.9 l -767.84,-152.08 c 96.31,-424.17 179.32,-860.36 249.4,-1308.6 69.87,-448.2 126.8,-908.56 170.52,-1380.84 z"
   id="path5"
   style="fill:#ffffff" />
   <path
   class="fil0"
   d="m 48291.12,6398.1 c -34.93,-481.21 -153.11,-855.24 -354.32,-1122.04 -201.19,-266.96 -459.32,-400.34 -774.24,-400.34 -332.58,0 -600.41,145.52 -803.92,436.4 -203.51,290.86 -309.55,687.9 -318.26,1191 538.13,0 987.62,-8.71 1348.47,-26.23 361.07,-17.53 661.8,-43.76 902.26,-78.78 z M 45882.82,2756.09 47648.09,0 49341.13,846.49 46716.28,3077.66 Z m 4560.77,4678.84 h -2952.95 c -271.31,0 -527.25,6.53 -767.84,19.7 -240.7,13.05 -461.51,32.89 -662.71,59.09 56.68,595.05 254.8,1047.73 593.89,1358.3 338.84,310.69 810.44,465.98 1414.16,465.98 266.74,0 564.35,-46.93 892.44,-141.08 328.1,-94.04 702.11,-243.82 1122.18,-449.59 l 374.01,820.4 c -616.9,459.33 -1204.17,793.95 -1761.98,1003.98 -557.8,210.02 -1129.84,315.03 -1716.02,315.03 -1023.69,0 -1851.65,-312.87 -2483.77,-938.5 -632.16,-625.47 -948.34,-1441.44 -948.34,-2447.67 0,-1063.09 353.28,-1944.63 1059.88,-2644.56 706.55,-699.95 1591.21,-1049.91 2654.39,-1049.91 979.82,0 1755.43,314.9 2326.3,944.89 571,629.95 856.37,1487.46 856.37,2572.4 v 111.54 z"
   id="path6"
   style="fill:#ffffff" />
   <path
   class="fil0"
   d="m 54761.58,3819.18 c -21.98,266.83 -39.38,483.52 -52.43,649.66 -13.17,166.29 -26.22,319.39 -39.4,459.33 463.59,-371.82 882.61,-640.83 1256.6,-807.1 374.01,-166.29 742.65,-249.44 1105.81,-249.44 402.39,0 752.27,93.1 1049.87,278.99 297.41,185.96 533.68,460.46 708.77,823.48 446.15,-371.72 868.38,-648.52 1266.56,-830.14 398.08,-181.5 778.6,-272.33 1141.75,-272.33 629.95,0 1136.35,205.69 1519.18,616.91 382.72,411.23 574.21,958.07 574.21,1640.48 0,249.41 -1.16,464.92 -3.34,646.45 -2.27,181.62 -5.48,361.98 -9.83,541.33 l -13.05,774.37 c 0,91.83 -2.31,249.32 -6.53,472.16 -4.48,223.07 -6.66,400.12 -6.66,531.23 0,327.86 50.29,551.97 150.95,672.09 100.67,120.27 284.24,180.39 551.17,180.39 13.18,0 42.72,-3.12 88.53,-9.19 46.13,-6.16 82.15,-9.25 108.38,-9.25 v 715.26 c -380.65,-43.72 -735.06,-76.47 -1063.12,-98.48 -328.1,-21.76 -623.44,-32.76 -885.91,-32.76 -231.79,0 -505.15,11 -820.31,32.76 -314.92,22.01 -662.71,54.75 -1043.26,98.48 v -708.73 c 17.3,0 40.33,2.05 68.86,5.94 28.37,4.03 66.73,5.97 114.95,5.97 214.14,0 359.7,-86.35 436.31,-259.04 76.38,-172.7 114.75,-575.82 114.75,-1209.66 v -761.19 -459.33 c 0,-822.48 -65.6,-1342.04 -196.74,-1558.59 -131.34,-216.54 -369.77,-324.88 -715.4,-324.88 -166.27,0 -344.45,32.85 -534.67,98.46 -190.32,65.64 -401.62,168.47 -633.4,308.42 v 3156.44 c 0,450.18 36.19,730.84 108.33,842.28 72.16,111.41 211.06,167.09 416.6,167.09 52.6,0 91.87,-0.94 118.33,-2.99 26.19,-1.96 52.43,-4.94 78.65,-8.93 v 708.73 c -586.32,-56.22 -1000.75,-92.19 -1243.55,-107.74 -242.78,-15.57 -445.24,-23.5 -606.93,-23.5 -166.4,0 -376.43,7.93 -630.08,23.5 -253.66,15.55 -667.19,51.52 -1240.24,107.74 v -708.73 c 26.23,3.99 52.47,6.97 78.69,8.93 26.33,2.05 63.43,2.99 111.63,2.99 231.91,0 390.42,-86.35 475.73,-259.04 85.31,-172.7 128.03,-562.77 128.03,-1170.25 v -820.31 -347.79 c 0,-861.72 -65.64,-1406.5 -196.97,-1633.93 -131.12,-227.43 -369.68,-341.37 -715.16,-341.37 -166.4,0 -344.49,31.82 -534.91,95.28 -190.32,63.43 -392.69,158.61 -606.94,285.37 -8.82,468.26 -16.39,915.46 -23.05,1342.04 -6.53,426.46 -9.71,860.72 -9.71,1302.53 v 551.3 c 0,428.04 38.11,701.31 114.72,819.23 76.51,117.97 217.59,176.95 423.41,176.95 47.98,0 85.18,-0.94 111.4,-2.99 26.23,-1.96 52.47,-4.94 78.79,-8.93 v 708.73 c -419.93,-43.72 -792.92,-76.47 -1118.83,-98.48 -326.04,-21.76 -594.01,-32.76 -803.91,-32.76 -288.72,0 -602.72,11.82 -941.59,35.39 -339.06,23.59 -696.82,55.44 -1073.02,95.85 V 9928.6 h 150.95 c 336.92,0 564.35,-77.65 682.51,-232.95 118.09,-155.25 177.05,-552.29 177.05,-1191.08 V 8064.94 6923.07 c 0,-74.3 -2.05,-210.03 -6.53,-406.88 -4.45,-196.85 -6.53,-356.5 -6.53,-479.04 0,-319.26 -49.25,-543.51 -147.6,-672.54 -98.38,-129.07 -265.79,-193.66 -502.05,-193.66 -17.53,0 -66.77,4.48 -147.6,13.18 -80.96,8.82 -147.74,15.35 -200.19,19.7 v -702.25 c 586.23,-78.65 1148.4,-174.87 1686.51,-288.68 538,-113.71 1065.14,-244.94 1581.47,-393.72 z"
   id="path7"
   style="fill:#ffffff" />
   <path
   class="fil0"
   d="m 10863.37,14995.58 c 0,-418.91 -125.85,-754.92 -377.46,-1007.77 -251.71,-252.84 -581.17,-379.29 -988.5,-379.29 -55.66,0 -120.72,3.09 -195.03,9.38 -74.44,6.3 -134.55,13.63 -180.36,22.11 -1.39,34.93 -2.88,86.11 -4.25,153.35 -9.74,372.76 -14.54,651.47 -14.54,836.53 0,154.17 3.45,374.03 10.42,659.86 4.12,130.33 6.99,233.27 8.37,308.97 l 12.47,609.59 c 97.35,34.93 191.13,60.22 281.47,75.57 90.38,15.46 188.41,23.14 294.2,23.14 368.31,0 652.64,-115.89 852.83,-347.79 200.3,-231.91 300.37,-553.11 300.37,-963.66 z m 471.34,-43.08 c 0,449.02 -147.83,815.61 -443.17,1099.61 -295.56,284 -689.29,425.89 -1181.38,425.89 -102.93,0 -243.33,-10.32 -421.28,-31.25 -178.09,-20.87 -308.07,-31.29 -390.06,-31.29 -79.24,0 -164.09,1.72 -254.34,5.28 -90.47,3.45 -190.55,8.71 -300.4,15.56 v -89.67 c 7,1.49 16.97,2.4 30.25,3.09 13.14,0.81 31.58,1.16 55.31,1.16 122.29,0 202.57,-43.08 240.84,-129.2 38.24,-86.09 57.37,-258.1 57.37,-515.78 v -1571.96 c 0,-257.68 -17.77,-422.45 -53.25,-494.49 -35.38,-72.16 -117.05,-108.23 -244.96,-108.23 -18.11,0 -31.39,0.32 -39.63,1.14 -8.35,0.67 -16.72,1.72 -25.06,3.08 v -87.58 c 79.23,5.48 167.18,10.42 263.85,14.64 96.64,4.13 186.65,6.21 270.02,6.21 70.9,0 184.93,-3.45 342.05,-10.42 157.02,-7.01 271.09,-10.42 341.96,-10.42 529.77,0 954.18,136.04 1273.21,408.15 319.06,272.09 478.67,637.61 478.67,1096.48 z"
   id="path8"
   style="fill:#ffffff" />
   <path
   class="fil0"
   d="m 15562.69,15026.58 c 0,-444.92 -98.71,-801.51 -296.14,-1069.84 -197.4,-268.3 -454.63,-402.52 -771.62,-402.52 -285.01,0 -519.99,119.23 -704.83,357.62 -184.97,238.56 -277.39,553.02 -277.39,943.64 0,445.02 98.4,799.78 295.14,1064.67 196.62,264.89 454.28,397.37 772.52,397.37 286.51,0 521.76,-117.84 706.01,-353.61 184.26,-235.58 276.32,-548.09 276.32,-937.34 z m -1019.59,1451.46 h -13.34 c -437.51,-1.53 -794.72,-146.08 -1071.33,-433.76 -278.03,-289.13 -417.06,-656.99 -417.06,-1103.14 0,-422.78 147.05,-784.57 441.03,-1085.61 294.07,-300.95 645.52,-451.45 1054.23,-451.45 435.17,0 793.17,145.69 1074.05,436.91 280.79,291.31 421.32,657.9 421.32,1100.16 0,428.17 -144.97,791.45 -434.82,1089.64 -288.42,296.63 -639.82,445.7 -1054.07,447.26 z"
   id="path9"
   style="fill:#ffffff" />
   <path
   class="fil0"
   d="m 21369.5,16436.33 c -11.11,0 -29.89,-1.36 -56.33,-4.21 -205.8,-11.02 -364.97,-16.63 -477.54,-16.63 -94.59,0 -251.03,5.61 -469.2,16.63 -37.55,1.49 -66.06,2.85 -85.54,4.21 v -89.65 c 12.51,0 27.73,0.67 45.81,2.03 18.11,1.4 31.39,2.18 39.73,2.18 100.12,0 171.33,-20.61 213.69,-61.58 42.4,-40.99 63.56,-112.93 63.56,-215.87 0,-219.66 -7.89,-528.63 -23.92,-926.91 -16.04,-398.4 -36.55,-801.18 -61.52,-1208.61 l -20.84,64.69 -875.95,1879.02 c -47.16,100.09 -83.68,188.38 -109.45,264.86 -25.77,76.51 -46.26,159.19 -61.52,248.17 h -106.38 c -9.74,-45.94 -24.97,-96.64 -45.8,-152.19 -20.98,-55.66 -69.64,-169.03 -146.02,-340 l -834.26,-1858.17 -62.52,-127.22 -22.89,342.05 c -19.47,285.05 -34.83,580.48 -45.93,886.27 -11.11,305.99 -16.62,593.66 -16.62,863.45 0,133.51 22.46,223.76 67.67,271.06 45.26,47.29 128.98,70.99 251.39,70.99 15.22,0 36.88,-1.47 64.57,-4.21 v 89.65 c -15.23,-1.36 -38.24,-2.72 -68.69,-4.21 -196.07,-11.02 -337.28,-16.63 -423.5,-16.63 -79.14,0 -203.6,4.94 -373.21,14.54 -43.18,2.87 -75.12,4.94 -95.97,6.3 v -89.65 c 29.19,2.75 50.74,4.21 64.7,4.21 68.02,0 121.96,-9.84 161.59,-29.31 39.6,-19.44 71.23,-52.1 94.92,-98 24.97,-51.42 50.61,-283.56 77.06,-696.5 4.25,-52.81 7.01,-91.74 8.37,-116.83 l 41.68,-638.07 c 4.23,-54.17 16.04,-214.51 35.52,-480.76 19.44,-266.25 29.18,-427.16 29.18,-482.8 0,-95.95 -22.21,-166.04 -66.77,-210.61 -44.54,-44.44 -114.62,-66.75 -210.57,-66.75 -14,0 -28.55,1.47 -43.86,4.23 v -89.67 c 12.59,1.37 31.35,2.73 56.31,4.12 172.48,12.47 289.17,18.77 350.42,18.77 43.08,0 98.27,-2.27 165.85,-6.86 67.33,-4.57 135.82,-9.96 205.33,-16.04 -2.76,16.72 -4.94,29.64 -6.3,38.7 -1.36,9.05 -2.07,17.07 -2.07,23.92 0,76.87 57.03,238.66 171.1,485.46 17.98,40.54 31.94,71.21 41.68,92.06 l 748.73,1624.55 661.08,-1409.71 c 154.26,-328.9 246.36,-531.7 276.34,-608.31 29.77,-76.73 44.77,-137.99 44.77,-184.05 0,-6.99 -0.78,-14.87 -2.17,-23.92 -1.24,-9.06 -3.41,-21.98 -6.17,-38.7 29.18,1.49 69.5,4.58 120.92,9.15 108.45,9.15 191.82,13.74 250.21,13.74 47.29,0 110.3,-2.73 188.86,-8.02 78.42,-5.36 143.48,-10.29 195,-14.87 v 89.67 c -13.96,-2.76 -27.92,-4.23 -41.78,-4.23 -115.44,0 -195.71,21.29 -240.84,63.66 -45.24,42.36 -67.8,115.66 -67.8,219.99 0,40.33 3.12,136.96 9.41,289.95 6.3,152.9 13.51,303.71 21.89,452.45 l 41.68,767.53 c 16.72,286.41 29.54,490.36 38.6,611.97 9.02,121.73 17.73,203.37 26.1,245.05 12.46,62.65 36.51,106.42 71.9,131.37 35.39,25.07 89.34,37.66 161.59,37.66 l 64.7,-4.21 v 89.65 z"
   id="path10"
   style="fill:#ffffff" />
   <path
   class="fil0"
   d="m 27692.19,15560.42 c 0,262.84 -108.81,481.43 -326.37,655.95 -217.59,174.42 -493.26,261.68 -826.82,261.68 -109.96,0 -226.29,-11.78 -349.39,-35.39 -123.13,-23.7 -263.16,-61.25 -420.18,-112.68 v -60.47 c 0,-104.33 -6.3,-222.84 -18.76,-355.55 -12.6,-132.86 -27.15,-229.05 -43.86,-288.85 l 114.75,-29.18 c 41.68,251.58 127.21,434.83 256.5,549.45 129.29,114.75 311.38,172.11 546.37,172.11 202.91,0 371.25,-58.72 504.68,-176.23 133.42,-117.49 200.15,-260.99 200.15,-430.71 0,-140.39 -50.38,-259.95 -151.14,-358.67 -100.88,-98.71 -263.85,-185.51 -489,-260.64 l -129.39,-43.86 c -275.21,-91.73 -468.52,-200.19 -579.7,-325.36 -111.32,-125.04 -166.85,-287.08 -166.85,-485.89 0,-234.85 98.71,-432.28 296.14,-592.29 197.43,-159.74 439.98,-239.79 727.86,-239.79 102.84,0 214.73,9.38 335.65,28.18 121.05,18.8 237.06,44.89 348.24,78.23 0,86.22 4.58,169.94 13.63,251.35 9.06,81.32 26.1,182.44 51.07,303.36 l -98,31.25 c -52.81,-190.44 -134.82,-328.44 -246,-413.97 -111.3,-85.41 -267.06,-128.26 -467.22,-128.26 -190.45,0 -341.27,48.66 -452.48,146.02 -111.32,97.35 -166.85,226.65 -166.85,387.98 0,129.16 46.51,238.79 139.72,328.45 93.09,89.65 252.96,172.01 479.61,246.99 l 127.22,43.86 c 294.78,97.35 500.21,211.99 616.36,344.13 115.98,132.06 174.05,301.67 174.05,508.8 z"
   id="path11"
   style="fill:#ffffff" />
   <path
   class="fil0"
   d="m 31728.42,15816.93 c -40.32,120.92 -74.44,231.91 -102.25,332.66 -27.85,100.8 -50.74,196.4 -68.82,286.77 -51.41,-1.36 -127.92,-3.43 -229.4,-6.29 -321.22,-9.74 -578.99,-14.68 -773.67,-14.68 -272.54,0 -643.71,6.3 -1113.7,18.89 l -39.5,2.07 v -89.65 c 6.88,1.36 16.93,2.4 30.22,3.08 13.17,0.69 31.48,1.04 55.22,1.04 122.28,0 202.55,-44.12 240.93,-132.37 38.14,-88.31 57.26,-264.57 57.26,-528.74 v -1559.85 c 0,-255.84 -17.75,-419.6 -53.14,-491.18 -35.48,-71.58 -117.16,-107.42 -245.05,-107.42 -18.12,0 -31.27,0.36 -39.64,1.04 -8.34,0.69 -16.71,1.82 -25.06,3.21 v -87.74 l 66.73,2.21 c 494.95,26.33 850.18,39.6 1065.72,39.6 108.46,0 245.74,-3.67 411.91,-11 166.04,-7.21 341.62,-17.5 526.56,-30.8 0,84.66 3.45,175 10.42,271.31 6.97,96.31 18.08,207.5 33.3,333.58 l -85.4,12.5 c -57.04,-194.58 -127.58,-314.14 -211.75,-358.67 -84.04,-44.45 -255.38,-66.77 -514.06,-66.77 -93.1,0 -188.74,1.03 -286.77,3.08 -97.91,2.18 -184.48,5.3 -259.59,9.42 -2.89,122.41 -4.94,264.52 -6.21,426.44 -1.49,162.05 -2.18,409.87 -2.18,743.45 33.45,4.25 67.1,7.46 101.12,9.51 34.12,2.07 71.23,3.08 111.67,3.08 h 383.74 c 198.7,0 334.64,-19.44 407.69,-58.4 72.93,-38.92 114.98,-114.75 126.2,-227.3 l 85.44,8.35 c -9.74,50.05 -17.08,105.24 -21.87,165.81 -4.81,60.49 -7.34,126.08 -7.34,196.98 0,68.27 2.54,134.91 7.34,200.3 4.8,65.27 12.14,133.42 21.87,204.31 l -85.44,10.42 c -11.23,-136.18 -53.27,-227.2 -126.2,-273.13 -73.05,-45.94 -208.99,-68.82 -407.69,-68.82 h -383.74 c -41.81,0 -79.6,1.03 -113.71,3.08 -34.03,2.09 -67.13,5.26 -99.08,9.39 0,186.32 1.73,394.17 5.27,623.56 3.43,229.37 8.6,426.93 15.57,592.29 95.95,11.11 194.67,19.8 296.14,26.1 101.48,6.2 194.68,9.29 279.54,9.29 266.96,0 458.42,-28.77 574.43,-86.48 116.12,-57.71 216.56,-185.29 301.42,-382.69 l 85.53,29.19 z"
   id="path12"
   style="fill:#ffffff" />
   <path
   class="fil0"
   d="m 35956.43,13535.45 c -13.87,-2.72 -27.82,-4.21 -41.69,-4.21 -62.52,0 -122.31,20.61 -179.35,61.61 -57,41 -104.2,99.05 -141.9,174.06 -58.27,118.29 -258.46,626.41 -600.51,1524.56 -187.69,493.57 -335.79,882.01 -444.21,1165.79 h -235.7 c -158.38,-476.96 -319.84,-947.52 -483.84,-1411.89 -164.1,-464.37 -316.18,-883.61 -456.68,-1257.63 -33.33,-91.74 -75.15,-157.35 -125.17,-197.09 -50.05,-39.63 -114.62,-59.43 -193.89,-59.43 -13.86,0 -28.49,1.49 -43.86,4.21 v -89.65 c 24.97,1.36 61.97,3.43 110.5,6.3 193.31,11.1 334.43,16.62 423.41,16.62 136.36,0 321.78,-7.01 556.78,-20.84 l 20.94,-2.07 v 89.65 c -13.96,-2.72 -28.51,-4.21 -43.86,-4.21 -88.98,0 -157.47,14.99 -205.32,44.9 -48.11,29.85 -72.04,71.9 -72.04,126.18 0,73.75 33.45,203.62 100.09,389.92 12.59,36.19 22.23,63.34 29.21,81.45 l 619.43,1770.57 c 68.02,-171.12 177.29,-457.53 327.38,-859.23 l 77.2,-208.54 85.53,-225.29 c 198.7,-529.74 298.1,-838.36 298.1,-925.96 0,-65.39 -22.79,-113.95 -68.69,-146.02 -45.94,-31.94 -115.44,-47.98 -208.67,-47.98 -13.72,0 -27.71,1.49 -41.58,4.21 v -89.65 c 76.39,6.97 160.1,12.5 251.26,16.71 91.05,4.13 170.65,6.21 238.79,6.21 61.25,0 127.22,-1.72 198.12,-5.16 70.86,-3.54 154.25,-9.38 250.21,-17.75 v 89.65 z"
   id="path13"
   style="fill:#ffffff" />
   <path
   class="fil0"
   d="m 39544.35,15816.93 c -40.32,120.92 -74.44,231.91 -102.25,332.66 -27.82,100.8 -50.74,196.4 -68.82,286.77 -51.32,-1.36 -127.92,-3.43 -229.26,-6.29 -321.35,-9.74 -579.25,-14.68 -773.92,-14.68 -272.42,0 -643.59,6.3 -1113.58,18.89 l -39.6,2.07 v -89.65 c 6.99,1.36 17.04,2.4 30.22,3.08 13.28,0.69 31.62,1.04 55.32,1.04 122.28,0 202.55,-44.12 240.82,-132.37 38.24,-88.31 57.37,-264.57 57.37,-528.74 v -1559.85 c 0,-255.84 -17.75,-419.6 -53.14,-491.18 -35.48,-71.58 -117.16,-107.42 -245.05,-107.42 -18.12,0 -31.27,0.36 -39.64,1.04 -8.24,0.69 -16.71,1.82 -24.97,3.21 v -87.74 l 66.77,2.21 c 494.95,26.33 850.05,39.6 1065.47,39.6 108.58,0 245.86,-3.67 412.03,-11 166.04,-7.21 341.62,-17.5 526.56,-30.8 0,84.66 3.45,175 10.42,271.31 6.97,96.31 18.08,207.5 33.34,333.58 l -85.44,12.5 c -57.04,-194.58 -127.58,-314.14 -211.75,-358.67 -84.04,-44.45 -255.51,-66.77 -513.97,-66.77 -93.33,0 -188.83,1.03 -286.73,3.08 -98.17,2.18 -184.75,5.3 -259.74,9.42 -2.85,122.41 -4.93,264.52 -6.2,426.44 -1.49,162.05 -2.18,409.87 -2.18,743.45 33.34,4.25 67.1,7.46 101.25,9.51 33.9,2.07 71.09,3.08 111.54,3.08 h 383.63 c 198.92,0 334.85,-19.44 407.79,-58.4 73.06,-38.92 114.98,-114.75 126.07,-227.3 l 85.57,8.35 c -9.74,50.05 -16.97,105.24 -21.87,165.81 -4.94,60.49 -7.34,126.08 -7.34,196.98 0,68.27 2.4,134.91 7.34,200.3 4.9,65.27 12.14,133.42 21.87,204.31 l -85.57,10.42 c -11.1,-136.18 -53.01,-227.2 -126.07,-273.13 -72.94,-45.94 -208.87,-68.82 -407.79,-68.82 h -383.63 c -41.68,0 -79.6,1.03 -113.71,3.08 -34.03,2.09 -67.13,5.26 -99.08,9.39 0,186.32 1.73,394.17 5.27,623.56 3.43,229.37 8.73,426.93 15.71,592.29 95.86,11.11 194.67,19.8 296.01,26.1 101.48,6.2 194.58,9.29 279.43,9.29 266.94,0 458.42,-28.77 574.64,-86.48 116.11,-57.71 216.45,-185.29 301.31,-382.69 l 85.53,29.19 z"
   id="path14"
   style="fill:#ffffff" />
   <path
   class="fil0"
   d="m 42961.18,14300.81 c 0,-208.54 -70.87,-378.15 -212.77,-508.8 -141.88,-130.67 -326.62,-196.07 -554.73,-196.07 -41.68,0 -86.44,2.07 -134.55,6.29 -47.88,4.12 -92.77,9.06 -134.46,14.54 -2.85,164.13 -4.9,341.62 -6.17,532.86 -1.49,191.14 -2.17,466.77 -2.17,826.93 16.58,0 40.99,1.27 72.94,4.12 111.21,8.37 200.19,12.5 266.92,12.5 94.59,0 164.46,-0.67 209.57,-2.07 45.26,-1.36 82.45,-3.43 111.67,-6.3 126.53,-73.62 222.04,-168.21 286.74,-283.54 64.59,-115.44 97,-248.83 97,-400.45 z m 1046.92,2127.14 -62.63,8.37 c -55.66,13.86 -105.95,24.28 -151.17,31.27 -45.26,6.97 -87.94,10.41 -128.26,10.41 -141.79,0 -258.59,-22.56 -350.42,-67.67 -91.61,-45.12 -173.73,-123.46 -246.09,-234.87 -43.08,-64.95 -102.73,-157.92 -179.21,-279.43 -25.1,-39.5 -43.9,-69.05 -56.35,-88.74 l -191.95,-305.54 c -65.26,-101.7 -119.88,-185.07 -163.64,-250.11 -43.72,-65.06 -72.03,-104.57 -84.4,-118.75 -48.8,6.99 -103.99,12.47 -165.82,16.72 -61.83,4.12 -123.46,6.17 -184.71,6.17 h -127.12 v 519.9 c 0,298.23 20.47,489.36 61.61,573.4 40.87,84.05 126.76,126.22 257.43,126.22 18.11,0 31.7,-0.36 40.67,-0.81 9.15,-0.46 17.17,-0.82 23.92,-0.82 v 66.88 c -11.11,0 -27.73,-0.78 -50.06,-2.18 -247.35,-12.47 -423.23,-18.77 -527.56,-18.77 -102.97,0 -278.06,6.3 -525.53,18.77 -23.68,1.4 -40.32,2.18 -50.05,2.18 v -73.18 c 6.97,1.49 17.08,2.54 30.25,3.22 13.29,0.67 31.6,1.03 55.28,1.03 122.32,0 202.59,-44.89 240.84,-134.68 38.28,-89.79 57.4,-269.1 57.4,-537.88 v -1569.24 c 0,-255.83 -17.75,-419.6 -53.14,-491.17 -35.51,-71.58 -117.16,-107.42 -245.09,-107.42 -18.07,0 -31.25,0.36 -39.6,1.04 -8.24,0.81 -16.71,1.81 -24.95,3.21 v -89.69 l 24.95,2.07 c 232.14,13.86 401.85,20.84 508.91,20.84 70.76,0 170.65,-3.76 299.22,-11.47 128.52,-7.66 228.38,-11.45 299.14,-11.45 321.34,0 582.88,73.3 785.24,219.99 202.34,146.69 303.46,336.79 303.46,570.32 0,162.73 -47.86,309.75 -143.81,441.12 -95.99,131.34 -239.92,247.92 -431.87,349.39 l 511.12,780.67 c 156.98,237.61 274.14,391.19 351.33,460.47 77.06,69.27 166.49,103.87 268.1,103.87 h 64.57 v 56.33 z"
   id="path15"
   style="fill:#ffffff" />
   <path
   class="fil0"
   d="m 46421.79,16436.33 c -9.87,0 -25.1,-0.69 -45.93,-2.05 -250.21,-12.59 -434.47,-18.8 -552.66,-18.8 -116.8,0 -300.28,6.21 -550.49,18.8 -22.32,1.36 -37.55,2.05 -45.9,2.05 v -89.65 c 6.99,1.36 15.68,2.39 26.1,3.08 10.29,0.69 30.22,1.14 59.44,1.14 132.02,0 218.14,-40.96 258.46,-123.1 40.42,-82.08 60.47,-269.1 60.47,-561 v -1536.97 c 0,-258.68 -18.67,-423.01 -56.13,-493.22 -37.69,-70.18 -125.27,-105.35 -262.8,-105.35 -18.11,0 -31.4,0.33 -39.64,1.02 -8.47,0.81 -16.71,1.85 -25.19,3.21 v -89.67 c 9.75,1.37 23.7,2.05 41.82,2.05 255.83,13.86 433.77,20.84 533.86,20.84 102.97,0 278.06,-6.3 525.51,-18.77 22.34,-1.39 39.73,-2.75 52.1,-4.12 v 89.67 c -8.24,-1.36 -16.71,-2.4 -24.95,-3.21 -8.35,-0.69 -21.53,-1.02 -39.6,-1.02 -137.67,0 -225.29,35.16 -262.84,105.35 -37.44,70.21 -56.33,234.54 -56.33,493.22 v 1536.97 c 0,291.89 20.16,478.91 60.45,561 40.45,82.14 126.67,123.1 258.72,123.1 29.18,0 49.01,-0.45 59.43,-1.14 10.42,-0.69 19.13,-1.72 26.1,-3.08 z"
   id="path16"
   style="fill:#ffffff" />
   <path
   class="fil0"
   d="m 51121.2,13535.45 c -15.35,-2.72 -31.39,-4.21 -48.11,-4.21 -50.05,0 -95.49,9.83 -136.49,29.31 -41,19.35 -71.94,45.8 -92.88,79.14 -34.7,51.52 -57.62,181.5 -68.72,390.02 -11.11,208.54 -16.72,527.02 -16.72,955.19 v 852.93 c 0,118.2 4.12,236.38 12.6,354.54 8.24,118.07 17.98,206.36 29.09,264.89 h -150.14 c -8.35,-18.22 -24.97,-43.86 -50.02,-77.29 -24.99,-33.34 -57.62,-74.34 -98.04,-122.99 L 48579,13958.85 v 940.51 c 0,486.6 5.16,820.31 15.59,1000.99 10.54,180.85 33.79,295.47 69.85,344.13 29.22,37.45 64.7,64.73 106.38,81.3 41.72,16.72 98.71,25.1 171.1,25.1 29.09,0 57.59,-1.49 85.31,-4.25 v 89.67 c -26.33,-1.37 -65.96,-3.41 -118.74,-6.3 -184.96,-9.62 -316.41,-14.54 -394.19,-14.54 -63.88,0 -184.25,4.93 -360.84,14.54 -58.27,2.89 -101.44,4.93 -129.29,6.3 v -89.67 c 8.48,1.49 17.44,2.4 27.15,3.09 9.87,0.81 23.59,1.16 41.68,1.16 48.69,0 93.59,-9.42 134.59,-28.18 40.99,-18.8 72.71,-44.9 94.91,-78.23 34.61,-51.42 57.62,-181.41 68.73,-389.93 11.1,-208.54 16.71,-526.98 16.71,-955.19 v -811.25 c 0,-211.26 -21.87,-356.95 -65.64,-437 -43.72,-79.79 -128.34,-119.88 -253.42,-119.88 -15.32,0 -36.84,1.49 -64.7,4.21 v -89.65 c 4.25,1.36 11.11,2.07 20.98,2.07 164,13.83 286.28,20.84 367.01,20.84 38.95,0 88.52,-2.31 148.99,-6.88 60.58,-4.58 123.46,-9.97 188.83,-16.04 22.24,54.5 52.47,110.41 90.71,167.76 38.14,57.26 93.44,129.98 165.85,218.05 l 1580.65,1899.85 v -746.55 c 0,-472.72 -3.63,-804.7 -11.43,-995.83 -7.69,-191.14 -25.32,-307.61 -53.14,-349.39 -26.35,-40.32 -61.16,-68.36 -104.2,-84.4 -43.18,-15.94 -100.8,-24.05 -173.15,-24.05 l -43.76,4.21 v -89.65 c 123.68,8.37 218.6,14.21 284.56,17.75 66.09,3.45 120.72,5.16 163.77,5.16 48.56,0 113.62,-2.31 195.03,-6.88 81.32,-4.58 173.38,-9.97 276.34,-16.04 v 89.65 z"
   id="path17"
   style="fill:#ffffff" />
   <path
   class="fil0"
   d="m 55328.23,15026.58 c 0,-444.92 -98.71,-801.51 -296.01,-1069.84 -197.43,-268.3 -454.75,-402.52 -771.65,-402.52 -285.01,0 -520.01,119.23 -704.85,357.62 -184.93,238.56 -277.48,553.02 -277.48,943.64 0,445.02 98.36,799.78 295.11,1064.67 196.62,264.89 454.3,397.37 772.78,397.37 286.28,0 521.5,-117.84 705.88,-353.61 184.15,-235.58 276.21,-548.09 276.21,-937.34 z m -1019.49,1451.46 h -13.38 c -437.71,-1.53 -794.69,-146.08 -1071.29,-433.76 -278.03,-289.13 -417.08,-656.99 -417.08,-1103.14 0,-422.78 147.06,-784.57 441.03,-1085.61 293.98,-300.95 645.54,-451.45 1054.23,-451.45 435.08,0 793.18,145.69 1074.09,436.91 280.66,291.31 421.2,657.9 421.2,1100.16 0,428.17 -144.88,791.45 -434.83,1089.64 -288.32,296.63 -639.72,445.7 -1053.96,447.26 z"
   id="path18"
   style="fill:#ffffff" />
   <path
   class="fil1"
   d="m 6208.76,14959.81 c 0,458.4 -371.62,829.92 -829.92,829.92 -458.4,0 -830.02,-371.52 -830.02,-829.92 0,-458.42 371.62,-829.92 830.02,-829.92 458.29,0 829.92,371.49 829.92,829.92 z"
   id="path19"
   style="fill:#ffffff" />
   <path
   class="fil1"
   d="m 59603.29,14959.81 c 0,458.4 -371.62,829.92 -829.92,829.92 -458.42,0 -830.02,-371.52 -830.02,-829.92 0,-458.42 371.6,-829.92 830.02,-829.92 458.29,0 829.92,371.49 829.92,829.92 z"
   id="path20"
   style="fill:#ffffff" />
  </g>
 </g></g></g></svg>
